<?xml version="1.0" encoding="UTF-8"?>
<!DOCTYPE svg PUBLIC "-//W3C//DTD SVG 1.1//EN" "http://www.w3.org/Graphics/SVG/1.1/DTD/svg11.dtd">
<svg xmlns="http://www.w3.org/2000/svg" version="1.1" width="513px" height="448px" style="shape-rendering:geometricPrecision; text-rendering:geometricPrecision; image-rendering:optimizeQuality; fill-rule:evenodd; clip-rule:evenodd" xmlns:xlink="http://www.w3.org/1999/xlink">
<g><path style="opacity:1" fill="#fafaf5" d="M -0.5,-0.5 C 170.5,-0.5 341.5,-0.5 512.5,-0.5C 512.5,148.833 512.5,298.167 512.5,447.5C 341.5,447.5 170.5,447.5 -0.5,447.5C -0.5,298.167 -0.5,148.833 -0.5,-0.5 Z"/></g>
<g><path style="opacity:1" fill="#edf7e0" d="M 375.5,16.5 C 362.082,17.0704 348.749,18.4037 335.5,20.5C 335.791,19.3509 336.624,18.6842 338,18.5C 347.898,17.4856 357.732,16.1523 367.5,14.5C 370.59,14.5217 373.257,15.1883 375.5,16.5 Z"/></g>
<g><path style="opacity:1" fill="#edf9dd" d="M 318.5,26.5 C 315.833,28.1667 313.167,29.8333 310.5,31.5C 304.974,34.0229 299.974,37.3563 295.5,41.5C 295.628,39.9102 296.295,38.5769 297.5,37.5C 301.715,34.4349 305.715,31.2683 309.5,28C 312.513,27.4978 315.513,26.9978 318.5,26.5 Z"/></g>
<g><path style="opacity:1" fill="#e4f5d8" d="M 375.5,16.5 C 377.514,26.6454 376.18,36.3121 371.5,45.5C 371.833,42.8333 372.167,40.1667 372.5,37.5C 374.335,30.6576 375.335,23.6576 375.5,16.5 Z"/></g>
<g><path style="opacity:1" fill="#579033" d="M 375.5,16.5 C 375.335,23.6576 374.335,30.6576 372.5,37.5C 371.542,37.9528 370.708,38.6195 370,39.5C 367.947,49.2193 365.114,58.5526 361.5,67.5C 357.98,74.6882 353.647,81.3549 348.5,87.5C 339.95,96.7114 329.617,103.045 317.5,106.5C 313.422,106.152 309.588,106.819 306,108.5C 300.174,108.492 294.34,108.159 288.5,107.5C 288.343,106.127 288.51,104.793 289,103.5C 291.421,99.9291 293.587,96.2625 295.5,92.5C 303.979,80.5216 314.312,70.3549 326.5,62C 328.905,60.3854 328.905,59.7188 326.5,60C 310.375,70.6298 296.375,83.4632 284.5,98.5C 281.927,98.1485 279.594,98.6485 277.5,100C 278.815,101.395 278.481,102.395 276.5,103C 277.5,103.333 278.5,103.667 279.5,104C 278.871,108.189 276.705,109.355 273,107.5C 272.378,105.269 271.211,103.435 269.5,102C 270.139,97.8794 270.805,93.7127 271.5,89.5C 273.632,84.5808 276.632,81.0808 280.5,79C 280.138,77.7753 279.638,76.6086 279,75.5C 278.667,75.8333 278.333,76.1667 278,76.5C 277.333,73.1667 277.333,69.8333 278,66.5C 279.333,63.8333 280.667,63.8333 282,66.5C 282.785,64.714 283.951,63.214 285.5,62C 283.583,55.2342 286.25,51.9009 293.5,52C 293.059,49.5467 293.559,47.0467 295,44.5C 300.065,39.926 305.231,35.5926 310.5,31.5C 313.167,29.8333 315.833,28.1667 318.5,26.5C 324.404,24.8674 330.07,22.8674 335.5,20.5C 348.749,18.4037 362.082,17.0704 375.5,16.5 Z"/></g>
<g><path style="opacity:1" fill="#ebf7de" d="M 235.5,50.5 C 231.856,47.6737 227.856,45.3404 223.5,43.5C 216.556,45.9017 213.056,50.5684 213,57.5C 219.131,61.4769 224.964,65.8102 230.5,70.5C 230.833,71.1667 231.167,71.8333 231.5,72.5C 231.5,72.8333 231.5,73.1667 231.5,73.5C 228.518,71.5258 225.518,69.5258 222.5,67.5C 220.93,67.6938 219.43,67.6938 218,67.5C 217.798,65.7444 217.298,64.0777 216.5,62.5C 214.742,61.8721 213.242,60.8721 212,59.5C 211.333,56.1667 211.333,52.8333 212,49.5C 214.648,47.8508 216.981,45.8508 219,43.5C 222.919,42.0535 226.752,42.2202 230.5,44C 232.288,46.1844 233.954,48.351 235.5,50.5 Z"/></g>
<g><path style="opacity:1" fill="#5f8940" d="M 372.5,37.5 C 372.167,40.1667 371.833,42.8333 371.5,45.5C 368.715,53.0713 365.381,60.4046 361.5,67.5C 365.114,58.5526 367.947,49.2193 370,39.5C 370.708,38.6195 371.542,37.9528 372.5,37.5 Z"/></g>
<g><path style="opacity:1" fill="#559033" d="M 248.5,67.5 C 249.071,70.9314 250.404,74.098 252.5,77C 251.968,79.0197 250.635,79.853 248.5,79.5C 248.343,80.8734 248.51,82.2068 249,83.5C 251.692,84.7022 252.526,86.5355 251.5,89C 252,89.5 252.5,90 253,90.5C 256.042,89.0135 257.875,90.0135 258.5,93.5C 256.235,98.2184 254.735,103.218 254,108.5C 254.591,114.657 254.257,120.991 253,127.5C 251.393,116.822 249.726,106.155 248,95.5C 247.667,96.5 247.333,97.5 247,98.5C 246.781,93.4848 246.781,88.4848 247,83.5C 246.667,83.8333 246.333,84.1667 246,84.5C 244.991,82.9751 244.491,81.3084 244.5,79.5C 243.5,79.5 242.5,79.5 241.5,79.5C 241.649,80.552 241.483,81.552 241,82.5C 238.971,79.9708 237.138,77.3041 235.5,74.5C 234.423,73.2949 233.09,72.6282 231.5,72.5C 231.167,71.8333 230.833,71.1667 230.5,70.5C 229.206,68.6716 228.206,66.6716 227.5,64.5C 225.516,64.6168 223.85,63.9501 222.5,62.5C 219.525,60.0821 216.858,57.4154 214.5,54.5C 217.273,53.0695 219.439,53.7362 221,56.5C 221.943,52.6113 224.277,49.9446 228,48.5C 230.02,49.0319 230.853,50.3652 230.5,52.5C 231.873,52.3433 233.207,52.51 234.5,53C 237.668,56.6721 240.668,60.5054 243.5,64.5C 244.905,65.9937 246.571,66.9937 248.5,67.5 Z"/></g>
<g><path style="opacity:1" fill="#5a8b3b" d="M 235.5,50.5 C 239.497,54.665 243.33,58.9983 247,63.5C 247.791,64.745 248.291,66.0783 248.5,67.5C 246.571,66.9937 244.905,65.9937 243.5,64.5C 240.668,60.5054 237.668,56.6721 234.5,53C 233.207,52.51 231.873,52.3433 230.5,52.5C 230.853,50.3652 230.02,49.0319 228,48.5C 224.277,49.9446 221.943,52.6113 221,56.5C 219.439,53.7362 217.273,53.0695 214.5,54.5C 216.858,57.4154 219.525,60.0821 222.5,62.5C 223.85,63.9501 225.516,64.6168 227.5,64.5C 228.206,66.6716 229.206,68.6716 230.5,70.5C 224.964,65.8102 219.131,61.4769 213,57.5C 213.056,50.5684 216.556,45.9017 223.5,43.5C 227.856,45.3404 231.856,47.6737 235.5,50.5 Z"/></g>
<g><path style="opacity:1" fill="#ebfadf" d="M 235.5,50.5 C 238.182,51.9555 240.849,53.2888 243.5,54.5C 243.197,57.5876 244.53,59.2542 247.5,59.5C 248.639,62.0037 249.306,64.6703 249.5,67.5C 249.167,67.5 248.833,67.5 248.5,67.5C 248.291,66.0783 247.791,64.745 247,63.5C 243.33,58.9983 239.497,54.665 235.5,50.5 Z"/></g>
<g><path style="opacity:1" fill="#f3fae9" d="M 277.5,63.5 C 272.901,78.1296 268.401,92.7963 264,107.5C 261.427,93.2747 256.593,79.9413 249.5,67.5C 251.776,69.2722 253.943,71.2722 256,73.5C 256.054,76.8612 257.054,79.8612 259,82.5C 260.66,78.8575 262.16,79.1909 263.5,83.5C 260.676,87.5573 261.676,90.5573 266.5,92.5C 267.769,88.7113 267.436,85.0446 265.5,81.5C 265.833,80.8333 266.167,80.1667 266.5,79.5C 266.849,83.4198 268.182,84.0865 270.5,81.5C 271.933,75.9366 273.6,70.4366 275.5,65C 275.836,63.9701 276.503,63.4701 277.5,63.5 Z"/></g>
<g><path style="opacity:1" fill="#e8f6d9" d="M 232.5,74.5 C 238.28,80.3832 242.28,87.3832 244.5,95.5C 240.194,88.5401 236.194,81.5401 232.5,74.5 Z"/></g>
<g><path style="opacity:1" fill="#effbe2" d="M 295.5,92.5 C 290.051,97.7226 286.384,104.056 284.5,111.5C 295.89,111.538 306.89,109.871 317.5,106.5C 329.617,103.045 339.95,96.7114 348.5,87.5C 348.617,89.4835 347.95,91.1502 346.5,92.5C 347.167,93.1667 347.833,93.8333 348.5,94.5C 346.599,95.2309 344.599,95.2309 342.5,94.5C 342.709,96.7144 341.876,98.381 340,99.5C 330.748,104.046 321.248,107.879 311.5,111C 301.866,112.147 292.2,112.647 282.5,112.5C 283.355,109.289 284.355,106.122 285.5,103C 284.423,102.53 283.423,102.697 282.5,103.5C 283.167,101.833 283.833,100.167 284.5,98.5C 296.375,83.4632 310.375,70.6298 326.5,60C 328.905,59.7188 328.905,60.3854 326.5,62C 314.312,70.3549 303.979,80.5216 295.5,92.5 Z"/></g>
<g><path style="opacity:1" fill="#618d3f" d="M 295.5,92.5 C 293.587,96.2625 291.421,99.9291 289,103.5C 288.51,104.793 288.343,106.127 288.5,107.5C 294.34,108.159 300.174,108.492 306,108.5C 309.588,106.819 313.422,106.152 317.5,106.5C 306.89,109.871 295.89,111.538 284.5,111.5C 286.384,104.056 290.051,97.7226 295.5,92.5 Z"/></g>
<g><path style="opacity:1" fill="#598d38" d="M 310.5,31.5 C 305.231,35.5926 300.065,39.926 295,44.5C 293.559,47.0467 293.059,49.5467 293.5,52C 286.25,51.9009 283.583,55.2342 285.5,62C 283.951,63.214 282.785,64.714 282,66.5C 280.667,63.8333 279.333,63.8333 278,66.5C 277.333,69.8333 277.333,73.1667 278,76.5C 278.333,76.1667 278.667,75.8333 279,75.5C 279.638,76.6086 280.138,77.7753 280.5,79C 276.632,81.0808 273.632,84.5808 271.5,89.5C 270.805,93.7127 270.139,97.8794 269.5,102C 271.211,103.435 272.378,105.269 273,107.5C 276.705,109.355 278.871,108.189 279.5,104C 278.5,103.667 277.5,103.333 276.5,103C 278.481,102.395 278.815,101.395 277.5,100C 279.594,98.6485 281.927,98.1485 284.5,98.5C 283.833,100.167 283.167,101.833 282.5,103.5C 276.668,111.498 272.168,120.164 269,129.5C 270.993,128.086 273.16,127.086 275.5,126.5C 273.512,129.319 271.012,131.652 268,133.5C 266.215,132.76 264.382,132.093 262.5,131.5C 261.417,130.635 261.251,129.635 262,128.5C 263.333,127.833 264.667,127.167 266,126.5C 267.738,122.741 269.571,119.074 271.5,115.5C 270.672,114.585 269.672,113.919 268.5,113.5C 266.958,114.747 265.458,114.747 264,113.5C 262.846,115.957 261.512,115.957 260,113.5C 257.295,118.309 255.628,123.643 255,129.5C 254.586,129.957 254.086,130.291 253.5,130.5C 252.818,129.757 252.151,129.091 251.5,128.5C 249.292,117.352 246.959,106.352 244.5,95.5C 242.28,87.3832 238.28,80.3832 232.5,74.5C 232.5,73.8333 232.167,73.5 231.5,73.5C 231.5,73.1667 231.5,72.8333 231.5,72.5C 233.09,72.6282 234.423,73.2949 235.5,74.5C 237.138,77.3041 238.971,79.9708 241,82.5C 241.483,81.552 241.649,80.552 241.5,79.5C 242.5,79.5 243.5,79.5 244.5,79.5C 244.491,81.3084 244.991,82.9751 246,84.5C 246.333,84.1667 246.667,83.8333 247,83.5C 246.781,88.4848 246.781,93.4848 247,98.5C 247.333,97.5 247.667,96.5 248,95.5C 249.726,106.155 251.393,116.822 253,127.5C 254.257,120.991 254.591,114.657 254,108.5C 254.735,103.218 256.235,98.2184 258.5,93.5C 257.875,90.0135 256.042,89.0135 253,90.5C 252.5,90 252,89.5 251.5,89C 252.526,86.5355 251.692,84.7022 249,83.5C 248.51,82.2068 248.343,80.8734 248.5,79.5C 250.635,79.853 251.968,79.0197 252.5,77C 250.404,74.098 249.071,70.9314 248.5,67.5C 248.833,67.5 249.167,67.5 249.5,67.5C 256.593,79.9413 261.427,93.2747 264,107.5C 268.401,92.7963 272.901,78.1296 277.5,63.5C 280.137,60.0113 282.637,56.3447 285,52.5C 288.704,48.9643 292.204,45.2976 295.5,41.5C 299.974,37.3563 304.974,34.0229 310.5,31.5 Z"/></g>
<g><path style="opacity:1" fill="#eef9e2" d="M 244.5,95.5 C 246.959,106.352 249.292,117.352 251.5,128.5C 250.391,128.443 249.391,128.11 248.5,127.5C 248.5,127.167 248.5,126.833 248.5,126.5C 248.938,126.565 249.272,126.399 249.5,126C 248.88,123.527 248.214,121.027 247.5,118.5C 245.891,117.674 244.224,116.674 242.5,115.5C 243.689,114.571 245.022,114.238 246.5,114.5C 245.001,108.357 244.334,102.024 244.5,95.5 Z"/></g>
<g><path style="opacity:1" fill="#f2fbe7" d="M 231.5,118.5 C 217.832,114.223 203.832,112.556 189.5,113.5C 177.052,115.278 165.052,118.612 153.5,123.5C 155.379,119.991 158.379,118.658 162.5,119.5C 162.675,116.671 161.342,115.004 158.5,114.5C 159.867,114.496 161.367,113.83 163,112.5C 166.098,114.047 169.431,114.714 173,114.5C 192.288,111.48 211.455,111.98 230.5,116C 230.167,116.333 229.833,116.667 229.5,117C 230.416,117.278 231.082,117.778 231.5,118.5 Z"/></g>
<g><path style="opacity:1" fill="#f5fbec" d="M 371.5,129.5 C 347.463,115.256 321.796,111.256 294.5,117.5C 296.732,115.805 299.399,114.638 302.5,114C 316.198,113.188 329.864,113.522 343.5,115C 347.054,116.028 350.554,117.195 354,118.5C 354.833,118.333 355.667,118.167 356.5,118C 354.246,116.623 352.08,115.123 350,113.5C 348.022,114.816 346.522,114.316 345.5,112C 346.667,111.833 347.833,111.667 349,111.5C 353.403,113.402 357.903,115.235 362.5,117C 364.134,117.494 365.801,117.66 367.5,117.5C 367.5,118.833 367.5,120.167 367.5,121.5C 356.044,118.462 355.71,119.462 366.5,124.5C 368.149,126.333 369.816,128 371.5,129.5 Z"/></g>
<g><path style="opacity:1" fill="#569034" d="M 189.5,113.5 C 199.757,114.039 210.091,115.205 220.5,117C 230.06,120.21 239.394,123.71 248.5,127.5C 249.391,128.11 250.391,128.443 251.5,128.5C 252.151,129.091 252.818,129.757 253.5,130.5C 254.086,130.291 254.586,129.957 255,129.5C 255.628,123.643 257.295,118.309 260,113.5C 261.512,115.957 262.846,115.957 264,113.5C 265.458,114.747 266.958,114.747 268.5,113.5C 269.672,113.919 270.672,114.585 271.5,115.5C 269.571,119.074 267.738,122.741 266,126.5C 264.667,127.167 263.333,127.833 262,128.5C 261.251,129.635 261.417,130.635 262.5,131.5C 264.382,132.093 266.215,132.76 268,133.5C 271.012,131.652 273.512,129.319 275.5,126.5C 277.5,125.167 279.5,123.833 281.5,122.5C 283.117,121.962 284.784,121.629 286.5,121.5C 292.336,119.729 298.336,118.229 304.5,117C 314.5,116.333 324.5,116.333 334.5,117C 338.2,117.361 341.533,118.527 344.5,120.5C 344.5,122.167 344.5,123.833 344.5,125.5C 346.604,125.201 348.604,125.534 350.5,126.5C 346.556,128.404 346.89,129.404 351.5,129.5C 351.5,130.833 351.5,132.167 351.5,133.5C 354.746,133.77 357.746,134.103 360.5,134.5C 361.833,133.167 361.833,131.833 360.5,130.5C 357.843,131.015 355.177,130.515 352.5,129C 355.468,126.822 355.135,125.656 351.5,125.5C 351.5,124.5 351.5,123.5 351.5,122.5C 353.564,122.687 355.564,123.187 357.5,124C 363.279,127.27 368.945,130.77 374.5,134.5C 375.689,135.429 377.022,135.762 378.5,135.5C 396.862,149.889 409.529,168.223 416.5,190.5C 416.5,190.833 416.5,191.167 416.5,191.5C 417.503,195.521 418.503,199.521 419.5,203.5C 418.853,204.274 418.52,205.274 418.5,206.5C 419.97,224.289 420.97,241.956 421.5,259.5C 421.5,259.833 421.5,260.167 421.5,260.5C 419.405,272.958 416.405,285.291 412.5,297.5C 411.504,297.414 410.671,297.748 410,298.5C 408.452,308.169 404.785,316.836 399,324.5C 398.51,325.793 398.343,327.127 398.5,328.5C 396.876,328.36 395.71,329.027 395,330.5C 394.503,332.81 394.337,335.143 394.5,337.5C 385.036,355.479 372.369,370.979 356.5,384C 351.949,387.434 347.282,390.601 342.5,393.5C 339.081,395.087 335.415,395.753 331.5,395.5C 331.703,397.39 331.037,398.89 329.5,400C 325.227,400.81 321.56,402.643 318.5,405.5C 314.377,405.798 310.377,406.631 306.5,408C 301.667,408.167 296.833,408.333 292,408.5C 280.315,407.83 268.648,406.83 257,405.5C 250.8,405.119 244.967,406.119 239.5,408.5C 230.18,409.129 220.846,409.462 211.5,409.5C 204.995,408.957 198.662,407.624 192.5,405.5C 177.362,398.762 163.695,389.762 151.5,378.5C 148.833,375.5 146.167,372.5 143.5,369.5C 143.489,367.983 142.823,366.816 141.5,366C 142.517,364.951 142.684,363.784 142,362.5C 139.763,361.944 137.763,360.944 136,359.5C 134.833,357.167 133.667,354.833 132.5,352.5C 135.026,351.49 137.192,352.157 139,354.5C 141.28,350.997 143.78,347.664 146.5,344.5C 161.465,364.8 180.798,379.633 204.5,389C 208.013,389.927 211.513,390.761 215,391.5C 214.29,383.026 213.123,374.692 211.5,366.5C 214.395,374.907 217.061,383.407 219.5,392C 225.754,392.892 231.754,392.392 237.5,390.5C 245.114,389.407 252.114,386.74 258.5,382.5C 260.5,381.167 262.5,379.833 264.5,378.5C 266.774,377.403 268.941,376.07 271,374.5C 275.214,376.898 278.381,375.732 280.5,371C 278.327,369.447 277.66,367.614 278.5,365.5C 279.496,365.414 280.329,365.748 281,366.5C 281.273,368.101 281.773,369.601 282.5,371C 282.167,371.333 281.833,371.667 281.5,372C 287.931,371.225 291.431,367.391 292,360.5C 292.667,359.167 293.333,359.167 294,360.5C 294.311,362.556 294.811,364.556 295.5,366.5C 295.154,367.696 294.654,367.696 294,366.5C 293.657,369.193 292.324,371.193 290,372.5C 289.302,376.359 288.469,380.192 287.5,384C 287.833,385.5 288.167,387 288.5,388.5C 288.833,388.333 289.167,388.167 289.5,388C 292.805,381.683 296.139,375.35 299.5,369C 299.006,367.538 298.673,366.038 298.5,364.5C 299.762,360.901 300.262,357.234 300,353.5C 299.667,352.833 299.333,352.167 299,351.5C 298.252,353.332 297.252,354.999 296,356.5C 295.833,355.667 295.667,354.833 295.5,354C 296.418,351.914 297.085,349.747 297.5,347.5C 298.5,347.5 299.5,347.5 300.5,347.5C 300.657,346.127 300.49,344.793 300,343.5C 298.49,340.61 296.99,337.776 295.5,335C 297.847,334.666 300.181,334.833 302.5,335.5C 302.198,332.941 302.532,330.607 303.5,328.5C 303.5,333.833 303.5,339.167 303.5,344.5C 303.648,352.247 302.981,359.913 301.5,367.5C 299.698,372.906 297.698,378.239 295.5,383.5C 294.18,385.463 292.846,387.463 291.5,389.5C 290.167,390.167 290.167,390.833 291.5,391.5C 297.046,392.741 302.713,392.574 308.5,391C 315.843,387.994 323.177,384.994 330.5,382C 336.652,376.759 342.985,371.759 349.5,367C 351.141,365.871 352.141,364.371 352.5,362.5C 357.573,356.767 362.239,350.767 366.5,344.5C 372.97,336.918 378.47,328.585 383,319.5C 386.826,311.527 390.326,303.527 393.5,295.5C 398.732,285.55 401.398,274.883 401.5,263.5C 402.657,248.007 402.657,232.674 401.5,217.5C 401.369,213.048 400.702,208.714 399.5,204.5C 396.067,186.968 388.401,171.634 376.5,158.5C 376.631,157.761 376.464,157.094 376,156.5C 369.915,150.737 363.581,145.404 357,140.5C 354.276,139.313 351.443,138.647 348.5,138.5C 348.489,136.983 347.823,135.816 346.5,135C 337.198,133.172 327.865,131.672 318.5,130.5C 310.891,131.982 303.224,133.149 295.5,134C 292.389,134.444 289.723,135.777 287.5,138C 285.167,138.333 282.833,138.667 280.5,139C 278.289,140.721 276.289,142.721 274.5,145C 271.32,146.553 267.986,147.719 264.5,148.5C 265.711,149.72 265.711,150.887 264.5,152C 259.156,152.876 254.156,152.043 249.5,149.5C 239.188,142.347 227.854,137.347 215.5,134.5C 212.904,133.735 210.237,133.401 207.5,133.5C 207.5,133.167 207.5,132.833 207.5,132.5C 199.01,131.343 190.343,131.176 181.5,132C 177.049,133.974 172.382,134.807 167.5,134.5C 167.5,135.5 167.5,136.5 167.5,137.5C 163.662,137.913 160.662,139.58 158.5,142.5C 140.354,153.452 127.354,168.785 119.5,188.5C 117.39,192.502 116.057,196.835 115.5,201.5C 114.102,204.007 114.436,206.34 116.5,208.5C 114.799,208.034 113.299,208.034 112,208.5C 107.232,240.438 110.566,271.438 122,301.5C 128.848,315.902 136.348,329.902 144.5,343.5C 142.169,342.956 139.836,342.623 137.5,342.5C 131.972,346.524 126.806,345.524 122,339.5C 119.042,333.737 116.876,327.737 115.5,321.5C 113.678,321.169 112.011,320.502 110.5,319.5C 106.971,311.581 103.638,303.581 100.5,295.5C 100.122,291.322 99.1221,287.322 97.5,283.5C 96.5127,278.883 95.846,274.216 95.5,269.5C 94.4271,250.515 94.2604,231.515 95,212.5C 97.6021,202.661 99.7688,192.661 101.5,182.5C 103.416,175.335 106.416,168.668 110.5,162.5C 121.39,145.606 135.723,132.606 153.5,123.5C 165.052,118.612 177.052,115.278 189.5,113.5 Z"/></g>
<g><path style="opacity:1" fill="#547b3a" d="M 189.5,113.5 C 203.832,112.556 217.832,114.223 231.5,118.5C 237.249,120.873 242.916,123.54 248.5,126.5C 248.5,126.833 248.5,127.167 248.5,127.5C 239.394,123.71 230.06,120.21 220.5,117C 210.091,115.205 199.757,114.039 189.5,113.5 Z"/></g>
<g><path style="opacity:1" fill="#eafade" d="M 282.5,103.5 C 281.774,106.179 280.941,108.846 280,111.5C 277.03,115.109 274.863,119.109 273.5,123.5C 276.206,123.425 278.873,123.092 281.5,122.5C 279.5,123.833 277.5,125.167 275.5,126.5C 273.16,127.086 270.993,128.086 269,129.5C 272.168,120.164 276.668,111.498 282.5,103.5 Z"/></g>
<g><path style="opacity:1" fill="#5a883d" d="M 348.5,138.5 C 341.049,135.888 333.383,134.054 325.5,133C 318.267,132.183 311.267,132.683 304.5,134.5C 289.282,137.776 275.616,144.276 263.5,154C 258.693,155.158 254.36,154.324 250.5,151.5C 250.167,150.833 249.833,150.167 249.5,149.5C 254.156,152.043 259.156,152.876 264.5,152C 265.711,150.887 265.711,149.72 264.5,148.5C 267.986,147.719 271.32,146.553 274.5,145C 276.289,142.721 278.289,140.721 280.5,139C 282.833,138.667 285.167,138.333 287.5,138C 289.723,135.777 292.389,134.444 295.5,134C 303.224,133.149 310.891,131.982 318.5,130.5C 327.865,131.672 337.198,133.172 346.5,135C 347.823,135.816 348.489,136.983 348.5,138.5 Z"/></g>
<g><path style="opacity:1" fill="#588739" d="M 371.5,129.5 C 373.147,131.326 375.147,132.66 377.5,133.5C 377.833,134.167 378.167,134.833 378.5,135.5C 377.022,135.762 375.689,135.429 374.5,134.5C 368.945,130.77 363.279,127.27 357.5,124C 355.564,123.187 353.564,122.687 351.5,122.5C 351.5,123.5 351.5,124.5 351.5,125.5C 355.135,125.656 355.468,126.822 352.5,129C 355.177,130.515 357.843,131.015 360.5,130.5C 361.833,131.833 361.833,133.167 360.5,134.5C 357.746,134.103 354.746,133.77 351.5,133.5C 351.5,132.167 351.5,130.833 351.5,129.5C 346.89,129.404 346.556,128.404 350.5,126.5C 348.604,125.534 346.604,125.201 344.5,125.5C 344.5,123.833 344.5,122.167 344.5,120.5C 341.533,118.527 338.2,117.361 334.5,117C 324.5,116.333 314.5,116.333 304.5,117C 298.336,118.229 292.336,119.729 286.5,121.5C 289.079,119.975 291.746,118.641 294.5,117.5C 321.796,111.256 347.463,115.256 371.5,129.5 Z"/></g>
<g><path style="opacity:1" fill="#e9f9dd" d="M 348.5,138.5 C 349.167,139.167 349.833,139.833 350.5,140.5C 343.086,138.905 335.753,137.072 328.5,135C 320.507,134.5 312.507,134.334 304.5,134.5C 311.267,132.683 318.267,132.183 325.5,133C 333.383,134.054 341.049,135.888 348.5,138.5 Z"/></g>
<g><path style="opacity:1" fill="#57803a" d="M 207.5,132.5 C 192.715,130.995 178.715,133.328 165.5,139.5C 163.046,140.227 160.713,141.227 158.5,142.5C 160.662,139.58 163.662,137.913 167.5,137.5C 167.5,136.5 167.5,135.5 167.5,134.5C 172.382,134.807 177.049,133.974 181.5,132C 190.343,131.176 199.01,131.343 207.5,132.5 Z"/></g>
<g><path style="opacity:1" fill="#ebf9dd" d="M 207.5,132.5 C 207.5,132.833 207.5,133.167 207.5,133.5C 201.824,133.334 196.157,133.501 190.5,134C 182.119,135.797 173.785,137.631 165.5,139.5C 178.715,133.328 192.715,130.995 207.5,132.5 Z"/></g>
<g><path style="opacity:1" fill="#fafaf5" d="M 207.5,133.5 C 210.237,133.401 212.904,133.735 215.5,134.5C 221.595,137.518 227.928,140.351 234.5,143C 235.453,144.955 236.787,146.622 238.5,148C 242.606,148.891 246.606,150.058 250.5,151.5C 254.36,154.324 258.693,155.158 263.5,154C 275.616,144.276 289.282,137.776 304.5,134.5C 312.507,134.334 320.507,134.5 328.5,135C 335.753,137.072 343.086,138.905 350.5,140.5C 359.276,144.282 366.943,149.615 373.5,156.5C 375.082,159.335 376.415,162.335 377.5,165.5C 381.697,168.898 385.197,172.898 388,177.5C 391.689,186.647 395.522,195.647 399.5,204.5C 400.702,208.714 401.369,213.048 401.5,217.5C 401.749,234.875 401.082,252.208 399.5,269.5C 398.131,278.31 396.131,286.977 393.5,295.5C 390.326,303.527 386.826,311.527 383,319.5C 378.47,328.585 372.97,336.918 366.5,344.5C 362.887,344.78 360.887,346.78 360.5,350.5C 357.794,353.704 354.961,356.704 352,359.5C 351.517,360.448 351.351,361.448 351.5,362.5C 350.415,364.587 348.749,365.92 346.5,366.5C 342.198,367.991 338.531,370.491 335.5,374C 331.756,374.929 328.256,374.429 325,372.5C 325.71,374.22 326.877,375.887 328.5,377.5C 325.363,379.657 322.363,381.99 319.5,384.5C 312.337,386.546 305.004,388.212 297.5,389.5C 296.5,389.167 295.5,388.833 294.5,388.5C 295.309,386.929 295.643,385.262 295.5,383.5C 297.698,378.239 299.698,372.906 301.5,367.5C 303.13,365.974 303.963,363.974 304,361.5C 304.981,351.856 305.648,342.19 306,332.5C 307.617,328.694 308.45,324.694 308.5,320.5C 309.15,320.196 309.817,319.863 310.5,319.5C 312.127,328.744 313.127,328.744 313.5,319.5C 315.103,319.688 316.437,319.188 317.5,318C 314.734,317.309 314.067,315.809 315.5,313.5C 319.102,310.799 323.102,308.966 327.5,308C 328.308,305.912 329.308,303.912 330.5,302C 339.271,299.047 343.605,292.88 343.5,283.5C 343.5,283.167 343.5,282.833 343.5,282.5C 348.722,278.009 350.722,272.176 349.5,265C 347.663,235.113 345.163,205.279 342,175.5C 341.394,172.907 339.894,171.24 337.5,170.5C 331.384,169.966 328.051,172.633 327.5,178.5C 327.5,178.833 327.5,179.167 327.5,179.5C 326.732,180.263 326.232,181.263 326,182.5C 325.667,204.833 325.333,227.167 325,249.5C 323.647,258.461 320.481,259.461 315.5,252.5C 316.647,228.524 316.814,204.524 316,180.5C 315.647,172.322 311.48,169.322 303.5,171.5C 303.5,172.5 303.5,173.5 303.5,174.5C 303.5,175.167 303.167,175.5 302.5,175.5C 301.5,175.5 300.5,175.5 299.5,175.5C 297.811,187.372 296.811,199.372 296.5,211.5C 297.495,214.129 297.161,216.296 295.5,218C 296.804,218.804 297.471,219.971 297.5,221.5C 296.207,225.661 296.207,229.828 297.5,234C 296.521,237.102 295.855,240.269 295.5,243.5C 296.01,245.539 296.01,247.372 295.5,249C 296.308,249.308 296.975,249.808 297.5,250.5C 296.652,252.409 296.318,254.409 296.5,256.5C 294.08,256.708 291.747,256.374 289.5,255.5C 288.5,229.175 288.167,202.842 288.5,176.5C 287.5,176.5 286.5,176.5 285.5,176.5C 285.027,172.434 282.694,170.434 278.5,170.5C 275.808,172.155 273.308,174.155 271,176.5C 270.5,202.498 270.333,228.498 270.5,254.5C 268.334,254.579 266.334,255.246 264.5,256.5C 262.971,256.471 261.804,255.804 261,254.5C 260.174,233.26 260.34,212.094 261.5,191C 260.474,185.586 259.808,180.086 259.5,174.5C 258.167,174.5 256.833,174.5 255.5,174.5C 255.5,173.5 255.5,172.5 255.5,171.5C 248.083,170.441 243.583,173.441 242,180.5C 240.79,202.196 239.623,223.862 238.5,245.5C 238.5,246.5 238.5,247.5 238.5,248.5C 235.967,263.017 237.801,277.017 244,290.5C 245.271,291.883 246.771,292.883 248.5,293.5C 249.167,293.833 249.833,294.167 250.5,294.5C 256.012,301.58 262.679,307.247 270.5,311.5C 273.844,317.025 277.01,322.692 280,328.5C 281.177,343.504 277.677,357.171 269.5,369.5C 265.479,373.522 261.812,377.856 258.5,382.5C 252.114,386.74 245.114,389.407 237.5,390.5C 231.463,390.829 225.463,390.496 219.5,389.5C 218.738,385.889 218.238,382.222 218,378.5C 214.716,369.369 212.05,360.036 210,350.5C 206.358,347.897 205.192,344.563 206.5,340.5C 207.833,340.5 209.167,340.5 210.5,340.5C 210.931,343.449 212.098,346.116 214,348.5C 214.173,352.719 215.173,356.719 217,360.5C 217.671,359.748 218.504,359.414 219.5,359.5C 221.409,367.531 223.076,375.531 224.5,383.5C 223.325,383.281 222.325,383.614 221.5,384.5C 224.667,385.001 227.001,386.667 228.5,389.5C 229.167,389.167 229.833,388.833 230.5,388.5C 231.318,385.893 231.818,383.226 232,380.5C 232.667,379.833 233.333,379.167 234,378.5C 237.088,358.093 236.921,337.926 233.5,318C 233.957,317.586 234.291,317.086 234.5,316.5C 231.896,308.569 229.396,300.569 227,292.5C 226.502,290.456 225.335,289.122 223.5,288.5C 204.707,249.561 174.373,224.061 132.5,212C 127.221,210.513 121.888,209.347 116.5,208.5C 114.436,206.34 114.102,204.007 115.5,201.5C 118.013,197.622 119.346,193.289 119.5,188.5C 127.354,168.785 140.354,153.452 158.5,142.5C 160.713,141.227 163.046,140.227 165.5,139.5C 173.785,137.631 182.119,135.797 190.5,134C 196.157,133.501 201.824,133.334 207.5,133.5 Z"/></g>
<g><path style="opacity:1" fill="#f3fae9" d="M 377.5,133.5 C 381.993,136.114 386.66,138.447 391.5,140.5C 391.714,138.856 391.38,137.356 390.5,136C 391.253,134.513 392.086,134.346 393,135.5C 393.397,139.76 394.064,143.76 395,147.5C 396.406,148.668 397.572,148.335 398.5,146.5C 399.308,148.423 399.808,150.423 400,152.5C 404.502,155.589 406.836,159.922 407,165.5C 412.22,172.986 415.387,181.319 416.5,190.5C 409.529,168.223 396.862,149.889 378.5,135.5C 378.167,134.833 377.833,134.167 377.5,133.5 Z"/></g>
<g><path style="opacity:1" fill="#eef8e3" d="M 215.5,134.5 C 227.854,137.347 239.188,142.347 249.5,149.5C 249.833,150.167 250.167,150.833 250.5,151.5C 246.606,150.058 242.606,148.891 238.5,148C 236.787,146.622 235.453,144.955 234.5,143C 227.928,140.351 221.595,137.518 215.5,134.5 Z"/></g>
<g><path style="opacity:1" fill="#5d8642" d="M 348.5,138.5 C 351.443,138.647 354.276,139.313 357,140.5C 363.581,145.404 369.915,150.737 376,156.5C 376.464,157.094 376.631,157.761 376.5,158.5C 375.5,157.833 374.5,157.167 373.5,156.5C 366.943,149.615 359.276,144.282 350.5,140.5C 349.833,139.833 349.167,139.167 348.5,138.5 Z"/></g>
<g><path style="opacity:1" fill="#ecf9df" d="M 373.5,156.5 C 374.5,157.167 375.5,157.833 376.5,158.5C 388.401,171.634 396.067,186.968 399.5,204.5C 395.522,195.647 391.689,186.647 388,177.5C 385.197,172.898 381.697,168.898 377.5,165.5C 376.415,162.335 375.082,159.335 373.5,156.5 Z"/></g>
<g><path style="opacity:1" fill="#e5f7d4" d="M 119.5,188.5 C 119.346,193.289 118.013,197.622 115.5,201.5C 116.057,196.835 117.39,192.502 119.5,188.5 Z"/></g>
<g><path style="opacity:1" fill="#5c8742" d="M 338.5,176.5 C 339.75,176.577 340.583,177.244 341,178.5C 342.891,195.804 344.391,213.137 345.5,230.5C 343.487,216.372 341.987,202.039 341,187.5C 339.096,184.077 338.263,180.41 338.5,176.5 Z"/></g>
<g><path style="opacity:1" fill="#edf9e4" d="M 110.5,162.5 C 106.416,168.668 103.416,175.335 101.5,182.5C 96.8109,193.93 93.9776,205.93 93,218.5C 92.3333,230.833 92.3333,243.167 93,255.5C 93.354,260.389 94.1873,265.056 95.5,269.5C 95.846,274.216 96.5127,278.883 97.5,283.5C 96.5041,283.586 95.6708,283.252 95,282.5C 90.2579,257.089 89.2579,231.423 92,205.5C 95.0696,196.644 97.4029,187.644 99,178.5C 100,177.5 101,176.5 102,175.5C 103.921,171.988 105.588,168.321 107,164.5C 107.816,163.177 108.983,162.511 110.5,162.5 Z"/></g>
<g><path style="opacity:1" fill="#6d9452" d="M 303.5,174.5 C 306.877,174.068 309.877,174.735 312.5,176.5C 309.482,176.335 306.482,176.502 303.5,177C 302.299,177.903 301.465,179.069 301,180.5C 300.667,205.833 300.333,231.167 300,256.5C 299.184,257.823 298.017,258.489 296.5,258.5C 297.122,257.373 297.955,256.373 299,255.5C 299.333,230.167 299.667,204.833 300,179.5C 300.662,178.016 301.496,176.683 302.5,175.5C 303.167,175.5 303.5,175.167 303.5,174.5 Z"/></g>
<g><path style="opacity:1" fill="#e9f6dc" d="M 285.5,176.5 C 281.117,173.57 277.117,173.904 273.5,177.5C 273.5,177.833 273.5,178.167 273.5,178.5C 272.982,204.084 272.148,229.75 271,255.5C 268.441,258.349 265.274,259.183 261.5,258C 260.54,256.581 259.707,255.081 259,253.5C 258.667,228.5 258.333,203.5 258,178.5C 255.019,174.304 251.186,173.471 246.5,176C 245.283,177.648 244.45,179.481 244,181.5C 242.233,202.992 240.399,224.326 238.5,245.5C 239.623,223.862 240.79,202.196 242,180.5C 243.583,173.441 248.083,170.441 255.5,171.5C 255.5,172.5 255.5,173.5 255.5,174.5C 256.833,174.5 258.167,174.5 259.5,174.5C 259.808,180.086 260.474,185.586 261.5,191C 260.34,212.094 260.174,233.26 261,254.5C 261.804,255.804 262.971,256.471 264.5,256.5C 266.334,255.246 268.334,254.579 270.5,254.5C 270.333,228.498 270.5,202.498 271,176.5C 273.308,174.155 275.808,172.155 278.5,170.5C 282.694,170.434 285.027,172.434 285.5,176.5 Z"/></g>
<g><path style="opacity:1" fill="#5d8b3f" d="M 273.5,178.5 C 273.807,205.199 273.474,231.865 272.5,258.5C 269.844,259.158 267.178,259.825 264.5,260.5C 261.677,259.861 259.177,258.527 257,256.5C 256.807,229.803 256.307,203.137 255.5,176.5C 252.813,176.336 250.146,176.503 247.5,177C 246.874,177.75 246.374,178.584 246,179.5C 245.126,197.961 243.46,216.294 241,234.5C 240.5,247.829 240.333,261.163 240.5,274.5C 239.698,273.048 239.198,271.382 239,269.5C 238.5,262.508 238.334,255.508 238.5,248.5C 238.5,247.5 238.5,246.5 238.5,245.5C 240.399,224.326 242.233,202.992 244,181.5C 244.45,179.481 245.283,177.648 246.5,176C 251.186,173.471 255.019,174.304 258,178.5C 258.333,203.5 258.667,228.5 259,253.5C 259.707,255.081 260.54,256.581 261.5,258C 265.274,259.183 268.441,258.349 271,255.5C 272.148,229.75 272.982,204.084 273.5,178.5 Z"/></g>
<g><path style="opacity:1" fill="#5a873c" d="M 338.5,176.5 C 336.5,176.5 334.5,176.5 332.5,176.5C 332.55,178.59 331.55,179.923 329.5,180.5C 328.667,205.493 328.167,230.493 328,255.5C 326.791,259.44 324.124,261.107 320,260.5C 317.41,260.624 315.077,259.958 313,258.5C 312.5,231.169 312.333,203.835 312.5,176.5C 313.338,176.842 313.672,177.508 313.5,178.5C 312.842,205.188 313.509,231.521 315.5,257.5C 320.209,259.527 324.043,258.527 327,254.5C 327.5,229.502 327.667,204.502 327.5,179.5C 327.5,179.167 327.5,178.833 327.5,178.5C 329.858,174.923 333.191,173.756 337.5,175C 338.056,175.383 338.389,175.883 338.5,176.5 Z"/></g>
<g><path style="opacity:1" fill="#547f3a" d="M 285.5,176.5 C 286.315,202.458 286.815,228.458 287,254.5C 287.465,255.931 288.299,257.097 289.5,258C 291.81,258.497 294.143,258.663 296.5,258.5C 296.209,259.649 295.376,260.316 294,260.5C 290.849,259.907 287.682,259.407 284.5,259C 285.428,258.612 286.095,257.945 286.5,257C 285.68,231.197 285.18,205.363 285,179.5C 281.698,176.288 277.865,175.621 273.5,177.5C 277.117,173.904 281.117,173.57 285.5,176.5 Z"/></g>
<g><path style="opacity:1" fill="#eefbe0" d="M 343.5,282.5 C 345.359,279.088 346.526,275.422 347,271.5C 347.78,257.773 347.28,244.106 345.5,230.5C 344.391,213.137 342.891,195.804 341,178.5C 340.583,177.244 339.75,176.577 338.5,176.5C 338.389,175.883 338.056,175.383 337.5,175C 333.191,173.756 329.858,174.923 327.5,178.5C 328.051,172.633 331.384,169.966 337.5,170.5C 339.894,171.24 341.394,172.907 342,175.5C 345.163,205.279 347.663,235.113 349.5,265C 350.722,272.176 348.722,278.009 343.5,282.5 Z"/></g>
<g><path style="opacity:1" fill="#e3f4d2" d="M 401.5,217.5 C 402.657,232.674 402.657,248.007 401.5,263.5C 400.833,265.5 400.167,267.5 399.5,269.5C 401.082,252.208 401.749,234.875 401.5,217.5 Z"/></g>
<g><path style="opacity:1" fill="#58833c" d="M 419.5,203.5 C 422.453,222.08 423.119,240.747 421.5,259.5C 420.97,241.956 419.97,224.289 418.5,206.5C 418.52,205.274 418.853,204.274 419.5,203.5 Z"/></g>
<g><path style="opacity:1" fill="#edfce1" d="M 416.5,191.5 C 417.644,193.1 418.811,194.767 420,196.5C 420.164,202.97 421.164,209.304 423,215.5C 423.667,228.5 423.667,241.5 423,254.5C 422.809,256.708 422.309,258.708 421.5,260.5C 421.5,260.167 421.5,259.833 421.5,259.5C 423.119,240.747 422.453,222.08 419.5,203.5C 418.503,199.521 417.503,195.521 416.5,191.5 Z"/></g>
<g><path style="opacity:1" fill="#5b883e" d="M 101.5,182.5 C 99.7688,192.661 97.6021,202.661 95,212.5C 94.2604,231.515 94.4271,250.515 95.5,269.5C 94.1873,265.056 93.354,260.389 93,255.5C 92.3333,243.167 92.3333,230.833 93,218.5C 93.9776,205.93 96.8109,193.93 101.5,182.5 Z"/></g>
<g><path style="opacity:1" fill="#e9f4de" d="M 327.5,179.5 C 327.667,204.502 327.5,229.502 327,254.5C 324.043,258.527 320.209,259.527 315.5,257.5C 314.851,231.039 314.184,204.706 313.5,178.5C 313.672,177.508 313.338,176.842 312.5,176.5C 309.877,174.735 306.877,174.068 303.5,174.5C 303.5,173.5 303.5,172.5 303.5,171.5C 311.48,169.322 315.647,172.322 316,180.5C 316.814,204.524 316.647,228.524 315.5,252.5C 320.481,259.461 323.647,258.461 325,249.5C 325.333,227.167 325.667,204.833 326,182.5C 326.232,181.263 326.732,180.263 327.5,179.5 Z"/></g>
<g><path style="opacity:1" fill="#f2fbe8" d="M 302.5,175.5 C 301.496,176.683 300.662,178.016 300,179.5C 299.667,204.833 299.333,230.167 299,255.5C 297.955,256.373 297.122,257.373 296.5,258.5C 294.143,258.663 291.81,258.497 289.5,258C 288.299,257.097 287.465,255.931 287,254.5C 286.815,228.458 286.315,202.458 285.5,176.5C 286.5,176.5 287.5,176.5 288.5,176.5C 288.167,202.842 288.5,229.175 289.5,255.5C 291.747,256.374 294.08,256.708 296.5,256.5C 296.318,254.409 296.652,252.409 297.5,250.5C 296.975,249.808 296.308,249.308 295.5,249C 296.01,247.372 296.01,245.539 295.5,243.5C 295.855,240.269 296.521,237.102 297.5,234C 296.207,229.828 296.207,225.661 297.5,221.5C 297.471,219.971 296.804,218.804 295.5,218C 297.161,216.296 297.495,214.129 296.5,211.5C 296.811,199.372 297.811,187.372 299.5,175.5C 300.5,175.5 301.5,175.5 302.5,175.5 Z"/></g>
<g><path style="opacity:1" fill="#569133" d="M 273.5,178.5 C 273.5,178.167 273.5,177.833 273.5,177.5C 277.865,175.621 281.698,176.288 285,179.5C 285.18,205.363 285.68,231.197 286.5,257C 286.095,257.945 285.428,258.612 284.5,259C 287.682,259.407 290.849,259.907 294,260.5C 295.376,260.316 296.209,259.649 296.5,258.5C 298.017,258.489 299.184,257.823 300,256.5C 300.333,231.167 300.667,205.833 301,180.5C 301.465,179.069 302.299,177.903 303.5,177C 306.482,176.502 309.482,176.335 312.5,176.5C 312.333,203.835 312.5,231.169 313,258.5C 315.077,259.958 317.41,260.624 320,260.5C 324.124,261.107 326.791,259.44 328,255.5C 328.167,230.493 328.667,205.493 329.5,180.5C 331.55,179.923 332.55,178.59 332.5,176.5C 334.5,176.5 336.5,176.5 338.5,176.5C 338.263,180.41 339.096,184.077 341,187.5C 341.987,202.039 343.487,216.372 345.5,230.5C 347.28,244.106 347.78,257.773 347,271.5C 346.526,275.422 345.359,279.088 343.5,282.5C 343.5,282.833 343.5,283.167 343.5,283.5C 339.294,291.71 333.294,298.376 325.5,303.5C 320.708,305.062 316.374,307.395 312.5,310.5C 311.415,313.383 309.415,315.383 306.5,316.5C 305.497,320.508 304.497,324.508 303.5,328.5C 302.532,330.607 302.198,332.941 302.5,335.5C 300.181,334.833 297.847,334.666 295.5,335C 296.99,337.776 298.49,340.61 300,343.5C 300.49,344.793 300.657,346.127 300.5,347.5C 299.5,347.5 298.5,347.5 297.5,347.5C 297.085,349.747 296.418,351.914 295.5,354C 295.667,354.833 295.833,355.667 296,356.5C 297.252,354.999 298.252,353.332 299,351.5C 299.333,352.167 299.667,352.833 300,353.5C 300.262,357.234 299.762,360.901 298.5,364.5C 298.673,366.038 299.006,367.538 299.5,369C 296.139,375.35 292.805,381.683 289.5,388C 289.167,388.167 288.833,388.333 288.5,388.5C 288.167,387 287.833,385.5 287.5,384C 288.469,380.192 289.302,376.359 290,372.5C 292.324,371.193 293.657,369.193 294,366.5C 294.654,367.696 295.154,367.696 295.5,366.5C 294.811,364.556 294.311,362.556 294,360.5C 293.333,359.167 292.667,359.167 292,360.5C 291.431,367.391 287.931,371.225 281.5,372C 281.833,371.667 282.167,371.333 282.5,371C 281.773,369.601 281.273,368.101 281,366.5C 280.329,365.748 279.496,365.414 278.5,365.5C 278.5,364.167 278.5,362.833 278.5,361.5C 280.849,361.542 282.182,360.375 282.5,358C 282.006,356.538 281.673,355.038 281.5,353.5C 283.491,342.253 283.991,330.92 283,319.5C 281.89,317.963 280.39,317.297 278.5,317.5C 278.5,316.5 278.5,315.5 278.5,314.5C 277.448,314.649 276.448,314.483 275.5,314C 269.398,308.979 263.398,303.812 257.5,298.5C 255.402,296.366 254.569,294.032 255,291.5C 254.092,293.439 252.592,294.439 250.5,294.5C 249.833,294.167 249.167,293.833 248.5,293.5C 244.478,287.783 241.811,281.449 240.5,274.5C 240.333,261.163 240.5,247.829 241,234.5C 243.46,216.294 245.126,197.961 246,179.5C 246.374,178.584 246.874,177.75 247.5,177C 250.146,176.503 252.813,176.336 255.5,176.5C 256.307,203.137 256.807,229.803 257,256.5C 259.177,258.527 261.677,259.861 264.5,260.5C 267.178,259.825 269.844,259.158 272.5,258.5C 273.474,231.865 273.807,205.199 273.5,178.5 Z"/></g>
<g><path style="opacity:1" fill="#75925d" d="M 313.5,178.5 C 314.184,204.706 314.851,231.039 315.5,257.5C 313.509,231.521 312.842,205.188 313.5,178.5 Z"/></g>
<g><path style="opacity:1" fill="#ddf1cf" d="M 238.5,248.5 C 238.334,255.508 238.5,262.508 239,269.5C 239.198,271.382 239.698,273.048 240.5,274.5C 241.811,281.449 244.478,287.783 248.5,293.5C 246.771,292.883 245.271,291.883 244,290.5C 237.801,277.017 235.967,263.017 238.5,248.5 Z"/></g>
<g><path style="opacity:1" fill="#edfae2" d="M 421.5,260.5 C 421.219,265.565 421.552,270.565 422.5,275.5C 421.478,276.354 420.645,277.354 420,278.5C 418.07,286.925 415.237,294.925 411.5,302.5C 411.629,300.784 411.962,299.117 412.5,297.5C 416.405,285.291 419.405,272.958 421.5,260.5 Z"/></g>
<g><path style="opacity:1" fill="#5d8442" d="M 401.5,263.5 C 401.398,274.883 398.732,285.55 393.5,295.5C 396.131,286.977 398.131,278.31 399.5,269.5C 400.167,267.5 400.833,265.5 401.5,263.5 Z"/></g>
<g><path style="opacity:1" fill="#f3fbeb" d="M 343.5,283.5 C 343.605,292.88 339.271,299.047 330.5,302C 329.308,303.912 328.308,305.912 327.5,308C 323.102,308.966 319.102,310.799 315.5,313.5C 314.067,315.809 314.734,317.309 317.5,318C 316.437,319.188 315.103,319.688 313.5,319.5C 313.127,328.744 312.127,328.744 310.5,319.5C 309.817,319.863 309.15,320.196 308.5,320.5C 309.072,318.745 309.906,317.078 311,315.5C 315.732,311.258 320.565,307.258 325.5,303.5C 333.294,298.376 339.294,291.71 343.5,283.5 Z"/></g>
<g><path style="opacity:1" fill="#5e8842" d="M 412.5,297.5 C 411.962,299.117 411.629,300.784 411.5,302.5C 407.145,314.875 401.479,326.541 394.5,337.5C 394.337,335.143 394.503,332.81 395,330.5C 395.71,329.027 396.876,328.36 398.5,328.5C 398.343,327.127 398.51,325.793 399,324.5C 404.785,316.836 408.452,308.169 410,298.5C 410.671,297.748 411.504,297.414 412.5,297.5 Z"/></g>
<g><path style="opacity:1" fill="#e8f7db" d="M 270.5,311.5 C 273.55,313.549 275.883,316.216 277.5,319.5C 278.927,322.024 280.094,324.69 281,327.5C 281.623,334.523 281.457,341.523 280.5,348.5C 277.814,359.869 272.481,369.869 264.5,378.5C 262.5,379.833 260.5,381.167 258.5,382.5C 261.812,377.856 265.479,373.522 269.5,369.5C 277.677,357.171 281.177,343.504 280,328.5C 277.01,322.692 273.844,317.025 270.5,311.5 Z"/></g>
<g><path style="opacity:1" fill="#f3faec" d="M 100.5,295.5 C 103.638,303.581 106.971,311.581 110.5,319.5C 115.623,331.922 121.956,343.589 129.5,354.5C 128.5,354.5 127.5,354.5 126.5,354.5C 126.701,350.363 124.701,348.03 120.5,347.5C 118.867,349.503 116.867,350.836 114.5,351.5C 114.662,349.176 115.828,347.509 118,346.5C 117.456,338.118 114.456,331.451 109,326.5C 108.667,326.833 108.333,327.167 108,327.5C 106.687,323.695 104.521,320.529 101.5,318C 101.63,316.941 102.13,316.108 103,315.5C 104.667,316.5 106,317.833 107,319.5C 107.167,319 107.333,318.5 107.5,318C 104.472,310.673 102.139,303.173 100.5,295.5 Z"/></g>
<g><path style="opacity:1" fill="#5a8d38" d="M 278.5,365.5 C 277.66,367.614 278.327,369.447 280.5,371C 278.381,375.732 275.214,376.898 271,374.5C 268.941,376.07 266.774,377.403 264.5,378.5C 272.481,369.869 277.814,359.869 280.5,348.5C 281.29,347.391 281.79,346.058 282,344.5C 282.667,337.833 282.667,331.167 282,324.5C 280.933,322.308 279.433,320.642 277.5,319.5C 275.883,316.216 273.55,313.549 270.5,311.5C 262.679,307.247 256.012,301.58 250.5,294.5C 252.592,294.439 254.092,293.439 255,291.5C 254.569,294.032 255.402,296.366 257.5,298.5C 263.398,303.812 269.398,308.979 275.5,314C 276.448,314.483 277.448,314.649 278.5,314.5C 278.5,315.5 278.5,316.5 278.5,317.5C 280.39,317.297 281.89,317.963 283,319.5C 283.991,330.92 283.491,342.253 281.5,353.5C 281.673,355.038 282.006,356.538 282.5,358C 282.182,360.375 280.849,361.542 278.5,361.5C 278.5,362.833 278.5,364.167 278.5,365.5 Z"/></g>
<g><path style="opacity:1" fill="#5b8340" d="M 277.5,319.5 C 279.433,320.642 280.933,322.308 282,324.5C 282.667,331.167 282.667,337.833 282,344.5C 281.79,346.058 281.29,347.391 280.5,348.5C 281.457,341.523 281.623,334.523 281,327.5C 280.094,324.69 278.927,322.024 277.5,319.5 Z"/></g>
<g><path style="opacity:1" fill="#5e8642" d="M 325.5,303.5 C 320.565,307.258 315.732,311.258 311,315.5C 309.906,317.078 309.072,318.745 308.5,320.5C 306.837,322.493 305.67,324.826 305,327.5C 304.827,333.348 304.327,339.015 303.5,344.5C 303.5,339.167 303.5,333.833 303.5,328.5C 304.497,324.508 305.497,320.508 306.5,316.5C 309.415,315.383 311.415,313.383 312.5,310.5C 316.374,307.395 320.708,305.062 325.5,303.5 Z"/></g>
<g><path style="opacity:1" fill="#68a138" d="M 116.5,208.5 C 121.888,209.347 127.221,210.513 132.5,212C 174.373,224.061 204.707,249.561 223.5,288.5C 227.804,298.411 230.47,308.744 231.5,319.5C 232.255,329.822 232.921,340.155 233.5,350.5C 233.011,360.231 232.011,369.898 230.5,379.5C 230.322,382.216 229.822,384.883 229,387.5C 226.124,377.961 222.957,368.628 219.5,359.5C 214.595,345.688 208.595,332.355 201.5,319.5C 199.554,313.173 196.387,307.506 192,302.5C 191.517,301.552 191.351,300.552 191.5,299.5C 190.5,299.5 189.5,299.5 188.5,299.5C 186.853,296.527 184.853,293.86 182.5,291.5C 173.304,278.952 162.637,267.786 150.5,258C 148.945,256.711 147.279,256.044 145.5,256C 157.597,267.913 167.931,281.08 176.5,295.5C 176.195,299.227 177.695,301.894 181,303.5C 181.333,305.833 181.667,308.167 182,310.5C 187.147,313.798 189.98,318.465 190.5,324.5C 189.191,326.104 186.857,326.77 183.5,326.5C 183.351,327.552 183.517,328.552 184,329.5C 186.934,327.233 190.101,326.566 193.5,327.5C 194.8,330.911 196.467,334.078 198.5,337C 198.149,339.589 197.482,342.089 196.5,344.5C 194.877,343.524 193.543,344.024 192.5,346C 193.147,347.609 193.98,349.109 195,350.5C 197.845,348.495 199.678,345.829 200.5,342.5C 202.653,345.14 203.987,348.14 204.5,351.5C 203.167,351.5 201.833,351.5 200.5,351.5C 200.657,350.127 200.49,348.793 200,347.5C 199.457,350.607 198.291,353.44 196.5,356C 199.247,356.112 201.747,355.946 204,355.5C 205.774,356.965 207.608,358.298 209.5,359.5C 210.566,361.701 211.233,364.035 211.5,366.5C 213.123,374.692 214.29,383.026 215,391.5C 211.513,390.761 208.013,389.927 204.5,389C 180.798,379.633 161.465,364.8 146.5,344.5C 146.158,343.662 145.492,343.328 144.5,343.5C 136.348,329.902 128.848,315.902 122,301.5C 110.566,271.438 107.232,240.438 112,208.5C 113.299,208.034 114.799,208.034 116.5,208.5 Z"/></g>
<g><path style="opacity:1" fill="#6b9e3f" d="M 176.5,295.5 C 179.167,298.833 181.833,302.167 184.5,305.5C 187.233,311.298 190.233,316.965 193.5,322.5C 200,334.334 205.333,346.667 209.5,359.5C 207.608,358.298 205.774,356.965 204,355.5C 201.747,355.946 199.247,356.112 196.5,356C 198.291,353.44 199.457,350.607 200,347.5C 200.49,348.793 200.657,350.127 200.5,351.5C 201.833,351.5 203.167,351.5 204.5,351.5C 203.987,348.14 202.653,345.14 200.5,342.5C 199.678,345.829 197.845,348.495 195,350.5C 193.98,349.109 193.147,347.609 192.5,346C 193.543,344.024 194.877,343.524 196.5,344.5C 197.482,342.089 198.149,339.589 198.5,337C 196.467,334.078 194.8,330.911 193.5,327.5C 190.101,326.566 186.934,327.233 184,329.5C 183.517,328.552 183.351,327.552 183.5,326.5C 186.857,326.77 189.191,326.104 190.5,324.5C 189.98,318.465 187.147,313.798 182,310.5C 181.667,308.167 181.333,305.833 181,303.5C 177.695,301.894 176.195,299.227 176.5,295.5 Z"/></g>
<g><path style="opacity:1" fill="#71994a" d="M 188.5,299.5 C 189.5,299.5 190.5,299.5 191.5,299.5C 191.351,300.552 191.517,301.552 192,302.5C 196.387,307.506 199.554,313.173 201.5,319.5C 201.167,319.5 200.833,319.5 200.5,319.5C 197.014,312.53 193.014,305.863 188.5,299.5 Z"/></g>
<g><path style="opacity:1" fill="#f7faef" d="M 182.5,291.5 C 184.853,293.86 186.853,296.527 188.5,299.5C 193.014,305.863 197.014,312.53 200.5,319.5C 200.38,321.199 200.046,322.865 199.5,324.5C 200.769,326.064 201.936,327.731 203,329.5C 203.333,329.167 203.667,328.833 204,328.5C 204.833,330.167 205.667,331.833 206.5,333.5C 205.624,334.251 204.624,334.751 203.5,335C 204.647,336.281 204.313,336.614 202.5,336C 199.263,332.028 197.263,327.528 196.5,322.5C 195.5,322.5 194.5,322.5 193.5,322.5C 190.233,316.965 187.233,311.298 184.5,305.5C 183.668,302.173 182.168,299.173 180,296.5C 179.506,294.866 179.34,293.199 179.5,291.5C 180.5,291.5 181.5,291.5 182.5,291.5 Z"/></g>
<g><path style="opacity:1" fill="#f1fae2" d="M 182.5,291.5 C 181.5,291.5 180.5,291.5 179.5,291.5C 179.34,293.199 179.506,294.866 180,296.5C 182.168,299.173 183.668,302.173 184.5,305.5C 181.833,302.167 179.167,298.833 176.5,295.5C 167.931,281.08 157.597,267.913 145.5,256C 147.279,256.044 148.945,256.711 150.5,258C 162.637,267.786 173.304,278.952 182.5,291.5 Z"/></g>
<g><path style="opacity:1" fill="#5a8f39" d="M 110.5,319.5 C 112.011,320.502 113.678,321.169 115.5,321.5C 116.876,327.737 119.042,333.737 122,339.5C 126.806,345.524 131.972,346.524 137.5,342.5C 139.836,342.623 142.169,342.956 144.5,343.5C 145.492,343.328 146.158,343.662 146.5,344.5C 143.78,347.664 141.28,350.997 139,354.5C 137.192,352.157 135.026,351.49 132.5,352.5C 133.667,354.833 134.833,357.167 136,359.5C 137.763,360.944 139.763,361.944 142,362.5C 142.684,363.784 142.517,364.951 141.5,366C 142.823,366.816 143.489,367.983 143.5,369.5C 138.601,364.691 133.935,359.691 129.5,354.5C 121.956,343.589 115.623,331.922 110.5,319.5 Z"/></g>
<g><path style="opacity:1" fill="#e6f6d5" d="M 308.5,320.5 C 308.45,324.694 307.617,328.694 306,332.5C 305.648,342.19 304.981,351.856 304,361.5C 303.963,363.974 303.13,365.974 301.5,367.5C 302.981,359.913 303.648,352.247 303.5,344.5C 304.327,339.015 304.827,333.348 305,327.5C 305.67,324.826 306.837,322.493 308.5,320.5 Z"/></g>
<g><path style="opacity:1" fill="#71984d" d="M 231.5,319.5 C 234.785,335.932 235.285,352.599 233,369.5C 232.465,373.038 231.632,376.372 230.5,379.5C 232.011,369.898 233.011,360.231 233.5,350.5C 232.921,340.155 232.255,329.822 231.5,319.5 Z"/></g>
<g><path style="opacity:1" fill="#ecf8de" d="M 223.5,288.5 C 225.335,289.122 226.502,290.456 227,292.5C 229.396,300.569 231.896,308.569 234.5,316.5C 234.291,317.086 233.957,317.586 233.5,318C 236.921,337.926 237.088,358.093 234,378.5C 233.333,379.167 232.667,379.833 232,380.5C 231.818,383.226 231.318,385.893 230.5,388.5C 229.833,388.833 229.167,389.167 228.5,389.5C 227.001,386.667 224.667,385.001 221.5,384.5C 222.325,383.614 223.325,383.281 224.5,383.5C 223.076,375.531 221.409,367.531 219.5,359.5C 222.957,368.628 226.124,377.961 229,387.5C 229.822,384.883 230.322,382.216 230.5,379.5C 231.632,376.372 232.465,373.038 233,369.5C 235.285,352.599 234.785,335.932 231.5,319.5C 230.47,308.744 227.804,298.411 223.5,288.5 Z"/></g>
<g><path style="opacity:1" fill="#eff9e2" d="M 200.5,319.5 C 200.833,319.5 201.167,319.5 201.5,319.5C 208.595,332.355 214.595,345.688 219.5,359.5C 218.504,359.414 217.671,359.748 217,360.5C 215.173,356.719 214.173,352.719 214,348.5C 212.098,346.116 210.931,343.449 210.5,340.5C 209.167,340.5 207.833,340.5 206.5,340.5C 205.192,344.563 206.358,347.897 210,350.5C 212.05,360.036 214.716,369.369 218,378.5C 218.238,382.222 218.738,385.889 219.5,389.5C 225.463,390.496 231.463,390.829 237.5,390.5C 231.754,392.392 225.754,392.892 219.5,392C 217.061,383.407 214.395,374.907 211.5,366.5C 211.233,364.035 210.566,361.701 209.5,359.5C 205.333,346.667 200,334.334 193.5,322.5C 194.5,322.5 195.5,322.5 196.5,322.5C 197.263,327.528 199.263,332.028 202.5,336C 204.313,336.614 204.647,336.281 203.5,335C 204.624,334.751 205.624,334.251 206.5,333.5C 205.667,331.833 204.833,330.167 204,328.5C 203.667,328.833 203.333,329.167 203,329.5C 201.936,327.731 200.769,326.064 199.5,324.5C 200.046,322.865 200.38,321.199 200.5,319.5 Z"/></g>
<g><path style="opacity:1" fill="#eefbdf" d="M 366.5,344.5 C 362.239,350.767 357.573,356.767 352.5,362.5C 352.167,362.5 351.833,362.5 351.5,362.5C 351.351,361.448 351.517,360.448 352,359.5C 354.961,356.704 357.794,353.704 360.5,350.5C 360.887,346.78 362.887,344.78 366.5,344.5 Z"/></g>
<g><path style="opacity:1" fill="#f0f9e5" d="M 129.5,354.5 C 133.935,359.691 138.601,364.691 143.5,369.5C 146.167,372.5 148.833,375.5 151.5,378.5C 147.77,376.798 144.104,374.798 140.5,372.5C 137.754,367.022 134.254,362.022 130,357.5C 129.517,356.552 129.351,355.552 129.5,354.5 Z"/></g>
<g><path style="opacity:1" fill="#f1fbe5" d="M 346.5,366.5 C 338.713,374.233 329.713,380.233 319.5,384.5C 322.363,381.99 325.363,379.657 328.5,377.5C 326.877,375.887 325.71,374.22 325,372.5C 328.256,374.429 331.756,374.929 335.5,374C 338.531,370.491 342.198,367.991 346.5,366.5 Z"/></g>
<g><path style="opacity:1" fill="#5e8843" d="M 351.5,362.5 C 351.833,362.5 352.167,362.5 352.5,362.5C 352.141,364.371 351.141,365.871 349.5,367C 342.985,371.759 336.652,376.759 330.5,382C 323.177,384.994 315.843,387.994 308.5,391C 302.713,392.574 297.046,392.741 291.5,391.5C 293.735,391.795 295.735,391.461 297.5,390.5C 305.346,390.04 312.68,388.04 319.5,384.5C 329.713,380.233 338.713,374.233 346.5,366.5C 348.749,365.92 350.415,364.587 351.5,362.5 Z"/></g>
<g><path style="opacity:1" fill="#ecfbde" d="M 295.5,383.5 C 295.643,385.262 295.309,386.929 294.5,388.5C 295.5,388.833 296.5,389.167 297.5,389.5C 305.004,388.212 312.337,386.546 319.5,384.5C 312.68,388.04 305.346,390.04 297.5,390.5C 295.265,390.795 293.265,390.461 291.5,389.5C 292.846,387.463 294.18,385.463 295.5,383.5 Z"/></g>
<g><path style="opacity:1" fill="#a1c293" d="M 291.5,389.5 C 293.265,390.461 295.265,390.795 297.5,390.5C 295.735,391.461 293.735,391.795 291.5,391.5C 290.167,390.833 290.167,390.167 291.5,389.5 Z"/></g>
<g><path style="opacity:1" fill="#f0fbe3" d="M 151.5,378.5 C 163.695,389.762 177.362,398.762 192.5,405.5C 184.432,405.3 177.766,402.133 172.5,396C 167.435,392.801 162.102,390.134 156.5,388C 154.17,385.175 152.504,382.008 151.5,378.5 Z"/></g>
<g><path style="opacity:1" fill="#5f8842" d="M 342.5,393.5 C 339.516,396.326 336.183,398.659 332.5,400.5C 327.973,402.564 323.307,404.231 318.5,405.5C 321.56,402.643 325.227,400.81 329.5,400C 331.037,398.89 331.703,397.39 331.5,395.5C 335.415,395.753 339.081,395.087 342.5,393.5 Z"/></g>
<g><path style="opacity:1" fill="#ecfbe0" d="M 332.5,400.5 C 326.963,405.571 320.297,408.238 312.5,408.5C 314.5,407.5 316.5,406.5 318.5,405.5C 323.307,404.231 327.973,402.564 332.5,400.5 Z"/></g>
<g><path style="opacity:1" fill="#edfbe1" d="M 192.5,405.5 C 198.662,407.624 204.995,408.957 211.5,409.5C 214.984,410.165 218.651,410.499 222.5,410.5C 228.409,410.651 234.075,409.984 239.5,408.5C 245.644,407.694 251.811,407.027 258,406.5C 262.726,406.579 267.226,407.246 271.5,408.5C 264.492,408.334 257.492,408.5 250.5,409C 241.085,410.726 231.585,411.892 222,412.5C 214.475,411.929 206.975,411.095 199.5,410C 197.102,408.476 194.769,406.976 192.5,405.5 Z"/></g>
<g><path style="opacity:1" fill="#59853d" d="M 318.5,405.5 C 316.5,406.5 314.5,407.5 312.5,408.5C 298.833,411.167 285.167,411.167 271.5,408.5C 267.226,407.246 262.726,406.579 258,406.5C 251.811,407.027 245.644,407.694 239.5,408.5C 244.967,406.119 250.8,405.119 257,405.5C 268.648,406.83 280.315,407.83 292,408.5C 296.833,408.333 301.667,408.167 306.5,408C 310.377,406.631 314.377,405.798 318.5,405.5 Z"/></g>
<g><path style="opacity:1" fill="#59803b" d="M 239.5,408.5 C 234.075,409.984 228.409,410.651 222.5,410.5C 218.651,410.499 214.984,410.165 211.5,409.5C 220.846,409.462 230.18,409.129 239.5,408.5 Z"/></g>
<g><path style="opacity:1" fill="#effddf" d="M 271.5,408.5 C 285.167,411.167 298.833,411.167 312.5,408.5C 312.389,409.117 312.056,409.617 311.5,410C 300.202,411.46 288.869,411.793 277.5,411C 275.277,410.434 273.277,409.6 271.5,408.5 Z"/></g>
</svg>
